<?xml version="1.0" standalone="no"?><!DOCTYPE svg PUBLIC "-//W3C//DTD SVG 1.1//EN" "http://www.w3.org/Graphics/SVG/1.1/DTD/svg11.dtd"><svg t="1515159939788" class="icon" style="" viewBox="0 0 1024 1024" version="1.1" xmlns="http://www.w3.org/2000/svg" p-id="16228" xmlns:xlink="http://www.w3.org/1999/xlink" width="200" height="200"><defs><style type="text/css"></style></defs><path d="M756.367639 472.122738c35.968068 0 64.974739 29.112131 64.974739 64.974739s-29.112131 64.974739-64.974739 64.974739-64.974739-29.112131-64.974739-64.974739 29.006671-64.974739 64.974739-64.974739z" fill="#F2F2F2" p-id="16229"></path><path d="M644.665845 309.368999c17.193082 17.193082 30.377654 37.33905 39.132898 59.278864-2.003744-0.421841-4.008511-0.843682-6.012255-1.160062-25.630921-4.852193-52.001088-7.277777-78.581151-7.277777a425.173501 425.173501 0 0 0-91.344905 9.915306c-13.079111-25.209081-19.935047-53.26661-19.935048-81.851441 0-9.493465 0.738221-19.091366 2.320125-28.69029 56.535876-9.177084 114.021918 9.386981 154.420336 49.7854z" fill="#F7B239" p-id="16230"></path><path d="M944.64684 537.097477a425.656774 425.656774 0 0 1-266.754892 169.715136c-31.221335-49.047179-49.363559-107.165981-49.363559-169.609676s18.036764-120.562497 49.363559-169.609675c2.003744 0.421841 4.008511 0.738221 6.012255 1.160062 38.289216 7.699618 75.100965 20.674292 109.487129 38.289215a424.205929 424.205929 0 0 1 151.255508 130.054938z m-123.304462 0c0-35.862607-29.112131-64.974739-64.974739-64.974739s-64.974739 29.112131-64.974739 64.974739 29.112131 64.974739 64.974739 64.974739c35.862607 0.10546 64.974739-29.006671 64.974739-64.974739z" fill="#F7B239" p-id="16231"></path><path d="M677.891948 367.487801c-31.221335 49.047179-49.363559 107.271442-49.363559 169.609676s18.036764 120.667957 49.363559 169.609676a422.992625 422.992625 0 0 1-78.581151 7.383237c-12.868191 0-25.736382-0.527301-38.394676-1.687363 16.560321-25.10362 23.310797-55.798679 18.353145-85.965412a121.734846 121.734846 0 0 0-19.513207-1.581903c-31.748636 0-62.654615 12.55181-85.438111 35.440767-8.437839 8.437839-15.400259 17.931304-20.885212 28.16299a433.255027 433.255027 0 0 1-48.098037-20.990674c-43.351305-22.256195-82.906043-51.895628-116.659447-87.969155-12.34089-13.184571-23.943558-27.213848-34.597085-42.085782h4.008511-4.008511c10.758987-14.872958 22.256195-28.901211 34.597085-42.085783 58.962484-63.076455 135.539892-106.42776 219.289616-124.886364a425.166333 425.166333 0 0 1 91.344905-9.915306c26.581087-0.316381 52.844769 2.109204 78.582175 6.961396z" fill="#F95428" p-id="16232"></path><path d="M442.569312 579.28872c-12.34089-13.184571-23.943558-27.213848-34.597085-42.085783h4.008511-4.008511c10.758987-14.872958 22.256195-28.901211 34.597085-42.085782 58.962484-63.181916 135.539892-106.63868 219.289616-124.991825a349.767418 349.767418 0 0 1 14.450093-2.847425c-25.209081-4.641272-51.051946-7.066857-77.104708-7.066857a425.173501 425.173501 0 0 0-91.344905 9.915306c-83.749724 18.353144-160.432592 61.810933-219.289616 124.886365-12.34089 13.184571-23.943558 27.213848-34.597085 42.085782h4.008511-4.008511c10.758987 14.872958 22.256195 28.901211 34.597085 42.085782 33.753404 36.073528 73.307118 65.81842 116.659446 87.969156 15.61118 8.015998 31.643176 14.978418 48.098037 20.990673 5.484954-10.231686 12.55181-19.724127 20.885213-28.16299 9.915305-9.915305 21.412514-17.931304 33.858864-23.838098-23.521718-16.455885-45.566992-35.547251-65.50204-56.854304z" fill="#E54728" p-id="16233"></path><path d="M579.269266 626.332155c4.957653 30.272194-1.792823 60.966228-18.353145 85.965412-4.430352 6.750476-9.598925 13.079111-15.400259 18.880445-22.888956 22.888956-53.688451 35.440767-85.438111 35.440767-6.434095 0-12.973651-0.527301-19.513206-1.581903-4.324892-26.686547 0.421841-53.582991 12.868191-76.788328 5.484954-10.231686 12.55181-19.724127 20.885212-28.16299 22.888956-22.888956 53.688451-35.440767 85.438111-35.440766 6.539556 0.10546 12.973651 0.632761 19.513207 1.687363zM288.569792 494.906235a418.325756 418.325756 0 0 0-34.597085 42.191242 177.900075 177.900075 0 0 1-121.722559-52.106548c-33.647943-33.542483-52.106548-78.897531-52.106548-125.730046 0-9.493465 0.738221-19.091366 2.320124-28.690291 56.43144-9.177084 113.916457 9.282544 154.420337 49.7854 30.907002 31.010415 49.049226 71.830675 51.685731 114.550243zM288.569792 579.28872c-2.741965 42.718544-20.779753 83.644264-51.684707 114.550242-33.647943 33.542483-79.002992 52.106548-125.730046 52.106548-9.493465 0-19.091366-0.738221-28.690291-2.320124-9.177084-56.43144 9.282544-113.916457 49.7854-154.314877 32.593342-32.698802 76.366487-51.051946 121.722559-52.106548 10.758987 14.87091 22.256195 28.900187 34.597085 42.084759z" fill="#F7B239" p-id="16234"></path><path d="M436.557058 462.312893c-6.012255 0-11.708129-3.37575-14.450094-9.071624-3.797591-8.015998-0.421841-17.614923 7.488697-21.412514 27.108388-12.973651 55.904139-22.888956 85.438111-29.323052 27.635689-6.117715 55.903115-9.177084 84.171565-9.177084 8.860704 0 16.03302 7.172317 16.03302 16.03302s-7.172317 16.03302-16.03302 16.033021a359.505591 359.505591 0 0 0-77.315629 8.437839c-27.213848 6.012255-53.582991 15.083879-78.47569 27.002927-2.216712 0.950166-4.536836 1.477467-6.85696 1.477467zM233.088518 481.298799c-6.750476 0-12.973651-4.219431-15.189339-10.969908-5.484954-16.454861-14.872958-31.537716-27.213848-43.878605-16.665781-16.665781-38.816517-27.952069-62.338234-31.537716-8.75422-1.370982-14.767498-9.598925-13.395492-18.353145s9.598925-14.767498 18.353145-13.395491c30.166733 4.746732 58.540643 19.091366 80.058617 40.609339 15.71664 15.8221 27.846609 35.229846 34.913466 56.32598 2.847425 8.437839-1.687363 17.509463-10.126226 20.251428-1.686339 0.737197-3.374726 0.948118-5.062089 0.948118zM575.682596 335.738141c-2.320124 0-4.746732-0.527301-7.066857-1.687363-10.231686-5.063113-21.201593-8.437839-32.382421-10.231686-8.75422-1.370982-14.766474-9.598925-13.395492-18.353144 1.370982-8.75422 9.598925-14.767498 18.353145-13.395492 14.450094 2.214664 28.47937 6.645016 41.663941 13.079111 7.910538 3.903051 11.180828 13.500952 7.277777 21.412514-2.847425 5.906794-8.543299 9.17606-14.450093 9.17606zM736.221671 451.132065c-1.898283 0-3.903051-0.316381-5.801334-1.054602-11.497208-4.430352-23.310797-8.437839-35.124386-11.708128-8.543299-2.320124-13.500952-11.180828-11.180828-19.724127s11.180828-13.500952 19.724127-11.180828c12.868191 3.58667 25.736382 7.805078 38.289216 12.762731 8.226919 3.27029 12.34089 12.55181 9.0706 20.779752-2.531045 6.327611-8.543299 10.125202-14.977395 10.125202z" fill="#FFFFFF" p-id="16235"></path><path d="M394.787656 469.69613m-16.033021 0a16.03302 16.03302 0 1 0 32.066041 0 16.03302 16.03302 0 1 0-32.066041 0Z" fill="#FFFFFF" p-id="16236"></path><path d="M957.726975 527.709473c-40.7148-56.5369-95.036012-103.263954-157.057866-135.118051a443.263506 443.263506 0 0 0-105.373158-37.971811c-9.598925-21.096133-22.783496-40.082039-39.238357-56.64236-43.98509-43.98509-106.955061-64.236518-168.344154-54.215752-6.750476 1.160062-12.129969 6.434095-13.290031 13.290031a193.811253 193.811253 0 0 0-2.531045 31.221335c0 24.154479 4.641272 48.308957 13.395492 70.776074-69.721471 18.564065-133.325228 53.793911-185.748156 102.208328a193.479514 193.479514 0 0 0-51.473787-92.188587c-43.984066-43.98509-106.955061-64.236518-168.344154-54.215752-6.750476 1.160062-12.129969 6.434095-13.290031 13.290032a193.811253 193.811253 0 0 0-2.531045 31.221335c0 51.051946 20.674292 100.942806 56.74782 137.016334a194.198282 194.198282 0 0 0 59.806166 40.7148c-22.045275 9.598925-42.296703 23.310797-59.806166 40.7148-43.98509 43.986114-64.341978 106.851649-54.321212 168.239717 1.160062 6.750476 6.434095 12.129969 13.290032 13.290032a193.811253 193.811253 0 0 0 31.221335 2.531044c51.051946 0 100.942806-20.674292 137.016334-56.74782 25.525461-25.630921 43.245844-57.591502 51.473787-92.399507a444.506503 444.506503 0 0 0 98.200842 68.772329c11.075368 5.695874 22.361655 10.864447 33.858863 15.61118-8.437839 22.256195-11.075368 46.621594-7.172316 70.565153 1.160062 6.750476 6.434095 12.129969 13.290031 13.290031 7.277777 1.160062 14.661014 1.792823 21.939815 1.792823 35.968068 0 71.092454-14.239173 96.935319-40.082038a130.029341 130.029341 0 0 0 11.813589-13.606412c10.126226 0.738221 20.462348 1.054602 30.694034 1.054601 142.079447 0 276.037436-68.666869 358.732558-183.637928 4.112947-5.58939 4.112947-13.078087 0.105461-18.773961zM504.695602 274.033692c47.359816-4.219431 94.719631 12.868191 128.683955 46.727055 8.226919 8.226919 15.505719 17.298543 21.623435 26.897467-45.672453-5.801334-92.610428-4.430352-137.965476 4.219432-8.543299-20.040507-13.079111-41.769402-13.079111-63.603757 0.104436-4.747756 0.315357-9.493465 0.737197-14.240197z m-408.517958 85.331627c0-4.746732 0.21092-9.493465 0.632761-14.344633 47.359816-4.219431 94.825092 12.868191 128.683956 46.727054 26.263682 26.369143 42.613083 60.755307 46.516134 97.568081-9.071624 10.020766-17.720383 20.462348-25.841842 31.326795-38.711056-2.847425-74.890044-19.302286-102.524709-46.937975-30.167757-30.166733-47.4663-71.830675-47.4663-114.339322z m129.316717 323.080871c-30.061273 30.061273-71.830675 47.359816-114.338298 47.359816-4.746732 0-9.493465-0.21092-14.344634-0.632761-4.219431-47.359816 12.868191-94.719631 46.727055-128.683956 27.635689-27.635689 63.814677-44.19601 102.630169-46.937975a455.535796 455.535796 0 0 0 25.841842 31.221335c-3.797591 36.918233-20.146992 71.409858-46.516134 97.673541z m308.629753 37.445534c-20.885213 20.885213-49.7854 31.959557-79.002992 30.588574-1.370982-29.217592 9.704385-58.118803 30.588575-79.002991 20.885213-20.885213 49.7854-31.959557 79.002991-30.588575 1.372006 29.322028-9.703361 58.117779-30.588574 79.002992z m52.422929-22.045275c9.493465-23.099877 12.65727-48.836258 8.543299-74.046363-1.160062-6.750476-6.434095-12.129969-13.290032-13.290031-43.351305-7.066857-87.758235 7.277777-118.87411 38.289215-6.117715 6.117715-11.497208 12.65727-16.349401 19.724127a396.6071 396.6071 0 0 1-34.069784-15.505719c-54.004831-27.635689-101.786488-67.611244-138.704721-115.921225 58.751564-76.999248 142.606748-130.582239 237.5373-151.361991 45.988833-10.126226 94.08687-12.129969 140.708465-6.117715-25.947302 48.203497-39.660198 102.102868-39.660198 157.479706 0 55.270354 13.606412 109.276209 39.660198 157.479706-17.404003 2.320124-35.018926 3.48121-52.84477 3.481211-4.111923 0-8.436815-0.10546-12.656246-0.210921z m99.149983-9.0706c-26.897467-45.883373-41.136641-97.989921-41.136641-151.572912s14.133713-105.794999 41.136641-151.678372a409.346281 409.346281 0 0 1 100.310045 35.757147c47.992577 24.576319 90.923065 58.751564 125.730046 99.888205h-22.467115c-8.860704 0-16.03302 7.172317-16.033021 16.03302s7.172317 16.03302 16.033021 16.033021h22.467115c-58.53962 68.982226-138.387317 116.447502-226.040091 135.539891z" fill="#333333" p-id="16237"></path><path d="M756.367639 456.089718c-44.723311 0-81.007759 36.389908-81.007759 81.007759s36.389908 81.007759 81.007759 81.007759 81.007759-36.389908 81.007759-81.007759-36.284448-81.007759-81.007759-81.007759z m0 130.054938c-27.002928 0-48.941719-21.939815-48.941719-48.941719 0-27.002928 21.939815-48.941719 48.941719-48.941718 27.002928 0 48.941719 21.939815 48.941718 48.941718 0 26.896444-21.938791 48.941719-48.941718 48.941719z" fill="#333333" p-id="16238"></path><path d="M756.367639 537.097477m-16.03302 0a16.03302 16.03302 0 1 0 32.06604 0 16.03302 16.03302 0 1 0-32.06604 0Z" fill="#333333" p-id="16239"></path></svg>